<?xml version="1.0" encoding="UTF-8"?>
<svg xmlns="http://www.w3.org/2000/svg" width="400" height="400" viewBox="0 0 400 400" role="img" aria-label="Unit: Catching its breath (sleepy, level 1)">
  <title>Unit</title>
  <desc>Catching its breath</desc>
  <defs>
    <radialGradient id="body-653c0b44fa4d">
      <stop offset="0%" stop-color="#1D4877"/>
      <stop offset="100%" stop-color="#3178C6"/>
    </radialGradient>
  </defs>
  <rect width="400" height="400" fill="transparent"/>
  <g opacity="1">
    <ellipse cx="140" cy="120" rx="25" ry="35" fill="#3178C6" stroke="#1A1A1A" stroke-width="2"/>
    <ellipse cx="260" cy="120" rx="25" ry="35" fill="#3178C6" stroke="#1A1A1A" stroke-width="2"/>
    <ellipse cx="200" cy="180" rx="108" ry="118.8" fill="url(#body-653c0b44fa4d)" stroke="#1A1A1A" stroke-width="3"/>
    <ellipse cx="120" cy="190" rx="14" ry="9" fill="#FFB6C1" opacity="0.55"/>
    <ellipse cx="280" cy="190" rx="14" ry="9" fill="#FFB6C1" opacity="0.55"/>
    <path d="M 140 160 Q 150 166 160 160" stroke="#1A1A1A" stroke-width="3" fill="none"/>
    <path d="M 240 160 Q 250 166 260 160" stroke="#1A1A1A" stroke-width="3" fill="none"/>
    <line x1="188" y1="220" x2="212" y2="220" stroke="#1A1A1A" stroke-width="3" stroke-linecap="round"/>
    <g aria-label="sparkles">
      <path d="M 320 120 L 325 130 L 330 120 L 325 110 Z" fill="#FFD700"/>
      <path d="M 70 120 L 75 130 L 80 120 L 75 110 Z" fill="#FFD700"/>
      <path d="M 200 50 L 205 60 L 210 50 L 205 40 Z" fill="#FFD700"/>
    </g>
    <g aria-label="zzz" font-family="monospace" font-weight="bold" fill="#1A1A1A">
      <text x="290" y="100" font-size="22">Z</text>
      <text x="310" y="80" font-size="16">z</text>
      <text x="325" y="65" font-size="12">z</text>
    </g>
  </g>
</svg>