<?xml version="1.0" encoding="UTF-8"?>
<svg xmlns="http://www.w3.org/2000/svg" width="400" height="400" viewBox="0 0 400 400" role="img" aria-label="Unit: Healthy and active (happy, level 1)">
  <title>Unit</title>
  <desc>Healthy and active</desc>
  <defs>
    <radialGradient id="body-653c0b44fa4d">
      <stop offset="0%" stop-color="#1D4877"/>
      <stop offset="100%" stop-color="#3178C6"/>
    </radialGradient>
  </defs>
  <rect width="400" height="400" fill="transparent"/>
  <g opacity="1">
    <ellipse cx="140" cy="120" rx="25" ry="35" fill="#3178C6" stroke="#1A1A1A" stroke-width="2"/>
    <ellipse cx="260" cy="120" rx="25" ry="35" fill="#3178C6" stroke="#1A1A1A" stroke-width="2"/>
    <ellipse cx="200" cy="180" rx="108" ry="118.8" fill="url(#body-653c0b44fa4d)" stroke="#1A1A1A" stroke-width="3"/>
    <ellipse cx="120" cy="190" rx="14" ry="9" fill="#FFB6C1" opacity="0.55"/>
    <ellipse cx="280" cy="190" rx="14" ry="9" fill="#FFB6C1" opacity="0.55"/>
    <path d="M 140 160 Q 150 150 160 160" stroke="#1A1A1A" stroke-width="3" fill="none"/>
    <path d="M 240 160 Q 250 150 260 160" stroke="#1A1A1A" stroke-width="3" fill="none"/>
    <path d="M 160 220 Q 200 235.5 240 220" stroke="#1A1A1A" stroke-width="3" fill="none"/>
    <g aria-label="sparkles">
      <path d="M 320 120 L 325 130 L 330 120 L 325 110 Z" fill="#FFD700"/>
      <path d="M 70 120 L 75 130 L 80 120 L 75 110 Z" fill="#FFD700"/>
      <path d="M 200 50 L 205 60 L 210 50 L 205 40 Z" fill="#FFD700"/>
    </g>
  </g>
</svg>